<?xml version="1.0" encoding="UTF-8"?>
<svg version="1.1" xmlns="http://www.w3.org/2000/svg" width="852" height="800">
<path d="M0 0 C281.16 0 562.32 0 852 0 C852 264 852 528 852 800 C570.84 800 289.68 800 0 800 C0 536 0 272 0 0 Z " fill="#FEFEFE" transform="translate(0,0)"/>
<path d="M0 0 C281.16 0 562.32 0 852 0 C852 0.66 852 1.32 852 2 C851.00853202 2.00021737 850.01706405 2.00043474 848.99555159 2.00065869 C805.30159054 2.01056586 761.60763447 2.02673582 717.91369629 2.07429504 C717.2522241 2.0750145 716.59075191 2.07573395 715.90923511 2.0764752 C701.5337739 2.09214781 687.15831418 2.10893012 672.7828556 2.12685562 C665.733167 2.13563949 658.68347812 2.14417813 651.63378906 2.15258789 C650.93225907 2.15342894 650.23072908 2.15426999 649.5079406 2.15513652 C626.76800431 2.18228393 604.02809525 2.19323714 581.28814401 2.19579524 C557.25812396 2.19858641 533.22818354 2.21982411 509.19819689 2.26052457 C494.80157988 2.28431196 480.4051085 2.29331269 466.00847453 2.28351311 C456.14166342 2.2782052 446.27498303 2.29118956 436.40820915 2.3186629 C430.71207397 2.33397994 425.01623129 2.34113158 419.32008743 2.32659721 C414.10620013 2.31347115 408.89288037 2.32329022 403.67905718 2.35143773 C401.79199065 2.35756105 399.90487398 2.35522974 398.01783317 2.34362926 C385.06764516 1.99519147 385.06764516 1.99519147 374 8 C357.43335489 26.59451246 356.93750366 59.97036501 356.7265625 83.33984375 C356.70763443 85.26810501 356.70763443 85.26810501 356.68832397 87.23532104 C356.45110535 115.15990597 356.90083278 142.95930795 359 170.8125 C359.05213779 171.50629257 359.10427559 172.20008514 359.15799332 172.91490173 C360.43152397 189.69377656 362.09113494 206.41230855 364.11328125 223.1171875 C364.24951558 224.24323584 364.24951558 224.24323584 364.38850212 225.39203262 C365.11658448 231.39896306 365.84837444 237.40545309 366.58539963 243.41129303 C369.88368397 270.33526543 371.12654897 296.86672883 370 324 C369.95196228 325.26228928 369.95196228 325.26228928 369.9029541 326.55007935 C369.5215369 336.33450966 368.85867928 345.90815624 367.125 355.5625 C366.96386719 356.53767578 366.80273438 357.51285156 366.63671875 358.51757812 C363.78070799 375.08908244 363.78070799 375.08908244 359.375 381.5625 C358.94960938 382.20316406 358.52421875 382.84382813 358.0859375 383.50390625 C356.25340523 386.02858201 356.28864589 385.95381666 352.875 386.5 C348.24823183 385.90299766 346.89777175 384.9286792 343.87109375 381.53125 C316.57813588 344.60883518 308.48273157 293.39950536 297.79522705 249.71466064 C280.84049166 175.73633629 280.84049166 175.73633629 254 105 C253.66548828 104.29665527 253.33097656 103.59331055 252.98632812 102.86865234 C247.63272104 91.77791953 240.9668834 78.92474128 229 74 C224.65309111 72.57938594 221.10028192 72.61694235 216.8125 74.25 C211.57862028 77.19663307 209.75468147 82.5025001 208 88 C197.54957947 142.27506961 219.61748875 209.51497945 231.48617554 262.15634155 C235.61374001 280.47869459 239.33469386 298.88300371 243.04833984 317.29296875 C243.81113617 321.07216274 244.58394087 324.84917789 245.36328125 328.625 C246.61953899 334.7416974 247.82031464 340.8680938 249 347 C249.15726563 347.8151709 249.31453125 348.6303418 249.4765625 349.47021484 C253.81436632 371.98875798 258.0571842 394.50041176 261 417.25 C261.09982178 418.01879486 261.19964355 418.78758972 261.30249023 419.5796814 C263.21313682 434.47244593 264.18670608 449.18010041 264.18530273 464.19165039 C264.18748772 466.79785551 264.20571192 469.40363493 264.22460938 472.00976562 C264.28993274 490.97363202 263.64547082 511.65959277 251 527 C250.57074219 527.56332031 250.14148438 528.12664063 249.69921875 528.70703125 C245.75297584 531.70980459 239.67212499 530.4559479 235 530 C217.9393015 526.41496499 204.19825753 508.83376228 194 496 C193.07509898 494.85345604 192.14927708 493.70765448 191.22265625 492.5625 C185.81774842 485.86702887 180.5208272 479.09953641 175.3125 472.25 C170.34188707 465.71740298 165.27132442 459.29425626 160 453 C159.58041016 452.49549316 159.16082031 451.99098633 158.72851562 451.47119141 C145.30644293 435.31769033 145.30644293 435.31769033 130 421 C129.23945313 420.32839844 128.47890625 419.65679687 127.6953125 418.96484375 C103.69537656 398.28404789 73.73007539 387.36471431 42.03417969 388.84326172 C28.72759586 389.86856499 14.6663436 394.66702204 5.5 404.75 C2.95955181 408.56067229 2.8716252 410.75709109 2.8613348 415.35248756 C2.85849258 416.01494936 2.85565036 416.67741116 2.85272202 417.35994756 C2.84433556 419.60143771 2.84310373 421.84287644 2.84178162 424.0843811 C2.83721895 425.69890541 2.83221937 427.31342854 2.82681805 428.92795026 C2.81319387 433.38144433 2.80580625 437.83493073 2.79939139 442.28844023 C2.79140618 447.08464174 2.77770197 451.88082721 2.76467896 456.67701721 C2.74288946 464.9923617 2.72475405 473.30770779 2.70907402 481.62306595 C2.68639786 493.64579901 2.65825194 505.66851433 2.62875474 517.69123237 C2.58105114 537.19551428 2.53779447 556.69980342 2.49731445 576.20410156 C2.4579736 595.15495365 2.41655077 614.1057993 2.37231445 633.05664062 C2.36959018 634.22403045 2.36686591 635.39142027 2.36405908 636.59418555 C2.35037984 642.45041622 2.33665952 648.30664679 2.32291877 654.16287732 C2.20891051 702.77523811 2.1021108 751.38761286 2 800 C1.34 800 0.68 800 0 800 C0 536 0 272 0 0 Z " fill="#FEFEFE" transform="translate(0,0)"/>
<path d="M0 0 C8.45269605 3.43838483 12.86721622 10.74212314 16.65625 18.76953125 C34.25698774 61.08293272 37.5639769 109.82081089 42 155 C42.11901672 156.21071167 42.23803345 157.42142334 42.36065674 158.66882324 C45.06590698 186.27375975 47.65863421 213.88467726 49.76922607 241.54223633 C54.43235569 303.87417895 54.43235569 303.87417895 65.5 365.3125 C65.67732666 366.07780029 65.85465332 366.84310059 66.03735352 367.6315918 C67.44746004 373.12908916 69.56659931 378.43600474 73 383 C76.15949682 384.21282289 76.15949682 384.21282289 79 384 C82.81256651 378.98919831 84.82288575 373.98563719 86.484375 367.9453125 C86.70077133 367.15868225 86.91716766 366.372052 87.14012146 365.56158447 C89.33175328 357.25187528 90.60775728 348.86998176 91.72094727 340.35791016 C92.05352172 337.81855324 92.40482005 335.28240872 92.75976562 332.74609375 C97.10413335 301.09854526 99.75036814 269.29121366 101.93945312 237.43334961 C102.18740945 233.84744445 102.4417824 230.26200699 102.69629765 226.67656231 C104.0265582 207.92381986 105.28311229 189.16899994 106.31997681 170.39752197 C112.43953129 61.46269025 112.43953129 61.46269025 140 36 C144.36715821 32.89446527 147.693371 32.61118277 152.83203125 33.4375 C159.59906972 35.19327214 163.54849238 40.26835134 167 46 C182.00088233 74.99424272 181.22721819 111.16002544 181.3125 143.0625 C181.31545074 144.05680023 181.31840149 145.05110046 181.32144165 146.07553101 C181.34872407 187.71298826 177.99486357 229.57595733 174 271 C173.06262471 280.73379597 172.12770505 290.4678155 171.20095825 300.20262909 C171.06749599 301.60385618 170.93385075 303.00506585 170.80001831 304.40625763 C168.36484336 329.90853128 166.4370883 355.42060711 165 381 C163.7939209 381.02187378 163.7939209 381.02187378 162.56347656 381.04418945 C146.50934096 381.36824939 130.80794925 381.95454761 115 385 C114.13487793 385.1542041 113.26975586 385.3084082 112.37841797 385.46728516 C49.87175953 396.69676365 -9.43498614 436.75086458 -50 485 C-50.77085937 485.88171875 -51.54171875 486.7634375 -52.3359375 487.671875 C-71.34963021 509.5319075 -87.09484526 533.6368522 -101 559 C-101.50418457 559.91652344 -102.00836914 560.83304688 -102.52783203 561.77734375 C-119.3173864 592.51112655 -132.03642866 625.41822062 -138 660 C-138.12310547 660.68884277 -138.24621094 661.37768555 -138.37304688 662.08740234 C-139.01620877 665.71517793 -139.5551401 669.3428378 -140 673 C-140.11085937 673.88042969 -140.22171875 674.76085937 -140.3359375 675.66796875 C-142.13063825 692.86314216 -141.10480538 709.75464099 -138.27539062 726.76196289 C-137.97608881 729.19432078 -137.9547064 731.55171894 -138 734 C-144.33483722 728.90458746 -149.62464033 723.08448693 -155 717 C-155.87785156 716.01193359 -155.87785156 716.01193359 -156.7734375 715.00390625 C-162.5928159 708.40387953 -168.28763975 701.69259839 -174 695 C-174.49113281 694.42491699 -174.98226562 693.84983398 -175.48828125 693.25732422 C-181.45034257 686.26877593 -187.31587346 679.21776823 -193 672 C-193.80695313 670.97777344 -194.61390625 669.95554687 -195.4453125 668.90234375 C-197.78316882 665.93698268 -200.11190951 662.96456361 -202.43896484 659.99072266 C-204.08629163 657.8899559 -205.74037354 655.79460983 -207.39453125 653.69921875 C-226.73542634 629.12307304 -243.59522447 602.82400013 -260.56347656 576.58203125 C-285.21051676 538.48417944 -310.29142635 501.44336624 -342.5625 469.3125 C-343.90344727 467.96575195 -343.90344727 467.96575195 -345.27148438 466.59179688 C-350.35238295 461.51833195 -355.53693571 456.6577366 -361 452 C-364.36655508 449.03505164 -367.69733487 446.03599031 -371 443 C-372.18335938 441.9171875 -372.18335938 441.9171875 -373.390625 440.8125 C-380.42809673 434.11014597 -388.08329733 425.32296201 -389.3359375 415.31640625 C-389.43551712 408.29604311 -388.54475952 404.64818751 -383.52734375 399.484375 C-370.60783344 387.38951428 -353.1348936 385.47283234 -336.23876953 385.91113281 C-300.00401337 387.34945901 -269.46987335 407.47272084 -245.0078125 433.0859375 C-243.94899052 434.29225707 -242.90620596 435.51281916 -241.87890625 436.74609375 C-240.33167845 438.60212377 -238.75600359 440.41588344 -237.15234375 442.22265625 C-229.52800496 450.84283651 -222.46307386 459.78372126 -215.5390625 468.97167969 C-212.74553821 472.65324691 -209.88367601 476.2805769 -207.01635742 479.90478516 C-204.77563377 482.73743635 -202.55104915 485.5793003 -200.36328125 488.453125 C-180.89015636 514.21752464 -180.89015636 514.21752464 -152.5859375 527.5390625 C-146.56505736 527.80387573 -146.56505736 527.80387573 -141.0078125 525.8515625 C-123.28240093 507.0240528 -127.39285397 471.11255733 -127.9263916 447.43444824 C-128.25537895 436.55386003 -129.50829369 425.77570497 -131 415 C-131.09238953 414.33166138 -131.18477905 413.66332275 -131.27996826 412.97473145 C-136.43504404 375.99582821 -143.0757781 338.9628197 -151.5078125 302.59375 C-153.49921902 293.95066328 -155.23298195 285.25359647 -157 276.5625 C-159.26335721 265.44734816 -161.54394832 254.33803418 -163.9375 243.25 C-164.28663452 241.62094727 -164.28663452 241.62094727 -164.64282227 239.95898438 C-165.75848732 234.75378748 -166.87800717 229.5496815 -168.01953125 224.35009766 C-172.56359705 203.62784955 -176.70116745 182.90802905 -179.9375 161.9375 C-180.15271805 160.54883224 -180.15271805 160.54883224 -180.37228394 159.1321106 C-183.04954993 141.72628652 -185.35597187 124.57298465 -185.25 106.9375 C-185.25716235 105.6022099 -185.26497501 104.26692312 -185.2734375 102.93164062 C-185.2524989 92.46757634 -184.71681339 82.51930002 -178 74 C-174.17875277 70.8824514 -170.96589911 70.03066346 -166.0625 69.875 C-156.97907246 71.72007122 -150.31923155 78.82387158 -145.2109375 86.14990234 C-113.30238926 134.90050286 -103.71208484 200.62154458 -89.92578125 256.44140625 C-77.21564986 325.57488343 -77.21564986 325.57488343 -42 383 C-38.36440163 384.41837427 -38.36440163 384.41837427 -35 383 C-27.10656734 375.7643534 -26.00401562 360.84130901 -24.3125 350.75 C-24.13340088 349.71782349 -24.13340088 349.71782349 -23.95068359 348.66479492 C-17.68564198 308.17775682 -22.07662726 265.68328218 -27.19848633 225.39941406 C-32.39407345 184.28805253 -35.38489252 143.10665365 -35.43390274 101.67034912 C-35.43744104 99.53557379 -35.44607994 97.40086912 -35.45565796 95.26611328 C-35.69056251 30.28942313 -35.69056251 30.28942313 -18 6 C-12.47486525 0.73796691 -7.53044597 -0.99555048 0 0 Z " fill="#E99844" transform="translate(391,2)"/>
<path d="M0 0 C5.26133668 2.68030359 8.86068625 6.17433738 11.08203125 11.68359375 C14.72555939 24.84680819 11.0802331 38.40282874 7 51 C6.67902344 51.99435059 6.67902344 51.99435059 6.3515625 53.00878906 C-3.4121536 82.40540961 -19.50649887 109.34646865 -35.66902161 135.57876587 C-37.64719085 138.78968024 -39.61194199 142.00800625 -41.56079102 145.23681641 C-48.04869091 155.9658103 -54.82849582 166.46315673 -61.8125 176.875 C-62.88074651 178.4730298 -63.94894251 180.07109336 -65.01708984 181.66918945 C-70.80797732 190.3192448 -76.67510054 198.90565595 -82.69238281 207.40014648 C-120.40153702 260.87435749 -151.07888877 317.78978257 -177.36538696 377.63916016 C-192.19699744 411.40267158 -209.76208662 443.17950046 -234.77734375 470.5546875 C-236.91048395 472.90151662 -238.98632073 475.29034586 -241.0625 477.6875 C-244.18830733 481.21723869 -247.50497919 484.31720572 -251.1015625 487.359375 C-253.8857436 489.76545743 -256.43114072 492.36691924 -259 495 C-259.66 494.67 -260.32 494.34 -261 494 C-260.3709375 493.22398437 -259.741875 492.44796875 -259.09375 491.6484375 C-239.80963751 467.47891552 -230.54734591 439.67392143 -230.6875 408.6875 C-230.69168945 407.41438965 -230.69587891 406.1412793 -230.70019531 404.82958984 C-230.81214764 395.49824394 -231.63753079 387.02584391 -234 378 C-234.30164063 376.72382812 -234.60328125 375.44765625 -234.9140625 374.1328125 C-239.45917225 355.76761295 -247.56793932 340.1772893 -260 326 C-260.65097656 325.19304687 -261.30195312 324.38609375 -261.97265625 323.5546875 C-285.72132993 295.09288591 -325.09254539 282.07541397 -360.82421875 278.46875 C-404.27244335 274.80352191 -444.00795083 286.62761726 -483 305 C-484.52297059 305.70803643 -486.04639839 306.41509035 -487.5703125 307.12109375 C-491.05210775 308.73642493 -494.52791366 310.36391083 -498 312 C-496.43761932 306.26197095 -493.57398465 301.58995541 -490.5 296.5625 C-489.96391113 295.67868652 -489.42782227 294.79487305 -488.87548828 293.88427734 C-484.12853413 286.10950583 -479.18823905 278.48687922 -474 271 C-473.60635254 270.43152344 -473.21270508 269.86304688 -472.80712891 269.27734375 C-452.9641085 240.77481301 -430.4182884 212.39755494 -402 192 C-400.86585449 191.15021367 -399.73306814 190.29861072 -398.6015625 189.4453125 C-381.63339387 176.8010972 -362.37606035 166.79749807 -342 161 C-341.33677734 160.80245117 -340.67355469 160.60490234 -339.99023438 160.40136719 C-320.22707553 154.7000971 -295.81391314 154.38112911 -276 160 C-274.17662109 160.49306641 -274.17662109 160.49306641 -272.31640625 160.99609375 C-256.26401928 165.82350253 -243.34079002 174.13792635 -230.3671875 184.5546875 C-213.06146871 198.51478203 -213.06146871 198.51478203 -192.3125 204.3125 C-190.82169922 204.36857422 -190.82169922 204.36857422 -189.30078125 204.42578125 C-182.10826907 203.49798974 -176.63048587 199.31046727 -171.3125 194.625 C-170.71800049 194.10752197 -170.12350098 193.59004395 -169.51098633 193.05688477 C-155.83990911 180.92549793 -144.57926465 166.50975239 -133.54150391 152.01855469 C-131.77718251 149.70822695 -130.00379479 147.40498526 -128.23046875 145.1015625 C-121.45951405 136.28668444 -114.79425003 127.42884572 -108.43579102 118.3112793 C-104.72672015 112.99946942 -100.91716539 107.76949421 -97.0625 102.5625 C-92.48606756 96.3787597 -87.93688407 90.17757137 -83.4375 83.9375 C-82.90737305 83.20257324 -82.37724609 82.46764648 -81.83105469 81.71044922 C-79.09879894 77.91971461 -76.37205681 74.12506846 -73.6484375 70.328125 C-67.25282426 61.42351371 -60.750343 52.63915121 -54 44 C-53.10740954 42.83774874 -52.21550174 41.67497295 -51.32421875 40.51171875 C-45.2532974 32.62814752 -38.8674775 25.198675 -32 18 C-31.54093262 17.50838379 -31.08186523 17.01676758 -30.60888672 16.51025391 C-22.23623699 7.55694406 -13.03612128 -1.58280056 0 0 Z " fill="#ADCC53" transform="translate(839,281)"/>
<path d="M0 0 C29.92915184 -0.7178003 62.98587841 1.96359764 86.59814453 22.59326172 C101.96048211 38.05298337 107.40849508 55.83299426 107.56298828 77.13623047 C107.34403047 100.48114423 99.37157406 119.60802578 84.06298828 137.07373047 C83.48033203 137.74533203 82.89767578 138.41693359 82.29736328 139.10888672 C58.86518432 164.13871425 20.86271825 181.88184051 -13.19238281 183.19970703 C-43.77163512 183.85714639 -72.67182594 180.50252324 -96.93701172 160.07373047 C-97.52740234 159.62771484 -98.11779297 159.18169922 -98.72607422 158.72216797 C-115.40654048 145.69769431 -124.00268267 123.39036158 -126.93701172 103.07373047 C-129.26922112 60.36695532 -129.26922112 60.36695532 -118.73388672 46.93701172 C-106.79522673 34.55714038 -90.36871399 26.27493925 -74.93701172 19.07373047 C-74.28764648 18.76838379 -73.63828125 18.46303711 -72.96923828 18.1484375 C-49.8539099 7.37317367 -25.56457729 0.64177077 0 0 Z " fill="#ADCC53" transform="translate(438.93701171875,611.92626953125)"/>
<path d="M0 0 C6.94803368 2.58848314 11.03693476 7.181675 14.08984375 13.76953125 C23.76713364 37.4851215 18.45441828 65.61988013 15.1875 90.1875 C15.04666992 91.2707959 14.90583984 92.3540918 14.76074219 93.47021484 C11.63851094 116.06565249 6.44139398 138.2178205 0.83753204 160.30411148 C0.30376029 162.40947213 -0.22782659 164.51537405 -0.7588501 166.62142944 C-10.80689553 206.45404811 -22.25470689 244.61893671 -38.03540039 282.609375 C-38.75101736 284.3829314 -39.39521823 286.18565468 -40 288 C-44.08599685 286.59382811 -46.95211223 284.63246445 -50.3125 281.9375 C-65.85644926 269.909706 -84.61364349 261.65106462 -103 255 C-101.30052672 248.95117926 -99.32778253 243.10363905 -96.99536133 237.27075195 C-78.58780714 191.23476969 -64.49115447 143.28630533 -50.125 95.875 C-49.76035645 94.67232483 -49.39571289 93.46964966 -49.02001953 92.23052979 C-44.42034688 77.06601932 -44.42034688 77.06601932 -39.88858032 61.88113403 C-24.95406874 11.43307121 -24.95406874 11.43307121 -10 1 C-6.79855229 -0.60072386 -3.48208592 -0.35797145 0 0 Z " fill="#E99844" transform="translate(696,135)"/>
<path d="M0 0 C281.16 0 562.32 0 852 0 C852 0.66 852 1.32 852 2 C850.50995013 2.00260437 850.50995013 2.00260437 848.98979825 2.00526136 C805.22718703 2.08181677 761.46457813 2.15961465 717.70198059 2.2436676 C717.03981812 2.24493928 716.37765564 2.24621096 715.69542764 2.24752118 C701.30612764 2.27516316 686.91682808 2.30302616 672.52752895 2.33111694 C665.47139633 2.34489057 658.41526362 2.35861535 651.35913086 2.37231445 C650.65694707 2.37367854 649.95476328 2.37504262 649.2313012 2.37644804 C626.45642456 2.4206683 603.68154349 2.46166005 580.90665791 2.50098413 C556.84701555 2.542544 532.78738259 2.58776871 508.72775441 2.63687855 C494.30813745 2.66619241 479.88852122 2.69255107 465.46889219 2.71517897 C455.59282089 2.73095647 445.71676096 2.75036129 435.84070226 2.77266841 C430.13515542 2.7854469 424.42961737 2.79657837 418.72406006 2.80341911 C413.50754533 2.80970865 408.29106086 2.82052077 403.07456271 2.8350333 C401.18085085 2.83948483 399.28713412 2.84223185 397.39341726 2.84316199 C394.83201196 2.84466162 392.2706954 2.85220049 389.70930767 2.8613348 C388.96314635 2.86031213 388.21698504 2.85928946 387.44821277 2.85823581 C384.35628581 2.8749608 381.95743365 3.01418878 379 4 C379 3.34 379 2.68 379 2 C254.59 2 130.18 2 2 2 C2.185625 63.318125 2.37125 124.63625 2.5625 187.8125 C2.76679418 263.58220738 2.76679418 263.58220738 2.83034325 295.76124907 C2.83713758 299.19667363 2.84393631 302.63209819 2.85081601 306.06752259 C3.06928175 415.22727746 2.90837446 524.38494485 2.57217997 633.54428285 C2.56246341 636.69938027 2.55278575 639.85447781 2.54311228 643.00957537 C2.38241345 695.33979123 2.20315733 747.66993161 2 800 C1.34 800 0.68 800 0 800 C0 536 0 272 0 0 Z " fill="#F0F0F0" transform="translate(0,0)"/>
<path d="M0 0 C2.31 0 4.62 0 7 0 C7 10.89 7 21.78 7 33 C5.18910132 30.28365197 4.61376328 28.99515613 3.96484375 25.9375 C3.7956543 25.14512939 3.62646484 24.35275879 3.45214844 23.53637695 C3.28231445 22.69937256 3.11248047 21.86236816 2.9375 21 C2.7612207 20.14946045 2.58494141 19.2989209 2.40332031 18.42260742 C1.17238939 12.30576496 0.28050757 6.24129341 0 0 Z " fill="#B0CE5A" transform="translate(845,672)"/>
</svg>
